<svg width="80" height="80" viewBox="0 0 80 80" fill="none" xmlns="http://www.w3.org/2000/svg">
<rect width="80" height="80" rx="40" fill="#FF5555"/>
<path d="M51.4453 39.1367V50.4062C51.0026 50.9401 50.319 51.5195 49.3945 52.1445C48.4701 52.7565 47.2786 53.2839 45.8203 53.7266C44.362 54.1693 42.5977 54.3906 40.5273 54.3906C38.6914 54.3906 37.0182 54.0911 35.5078 53.4922C33.9974 52.8802 32.6953 51.9883 31.6016 50.8164C30.5208 49.6445 29.6875 48.2122 29.1016 46.5195C28.5156 44.8138 28.2227 42.8672 28.2227 40.6797V38.9023C28.2227 36.7148 28.5026 34.7682 29.0625 33.0625C29.6354 31.3568 30.4492 29.918 31.5039 28.7461C32.5586 27.5742 33.8151 26.6823 35.2734 26.0703C36.7318 25.4583 38.3529 25.1523 40.1367 25.1523C42.6107 25.1523 44.6419 25.556 46.2305 26.3633C47.819 27.1576 49.0299 28.2643 49.8633 29.6836C50.7096 31.0898 51.2305 32.7044 51.4258 34.5273H45.7422C45.599 33.5638 45.3255 32.724 44.9219 32.0078C44.5182 31.2917 43.9388 30.7318 43.1836 30.3281C42.4414 29.9245 41.4779 29.7227 40.293 29.7227C39.3164 29.7227 38.444 29.9245 37.6758 30.3281C36.9206 30.7188 36.2826 31.2982 35.7617 32.0664C35.2409 32.8346 34.8438 33.7852 34.5703 34.918C34.2969 36.0508 34.1602 37.3659 34.1602 38.8633V40.6797C34.1602 42.1641 34.3034 43.4792 34.5898 44.625C34.8763 45.7578 35.2995 46.7148 35.8594 47.4961C36.4323 48.2643 37.1354 48.8438 37.9688 49.2344C38.8021 49.625 39.7721 49.8203 40.8789 49.8203C41.8034 49.8203 42.5716 49.7422 43.1836 49.5859C43.8086 49.4297 44.3099 49.2409 44.6875 49.0195C45.0781 48.7852 45.3776 48.5638 45.5859 48.3555V43.3164H40.2344V39.1367H51.4453Z" fill="white"/>
</svg>
