<svg width="20" height="21" viewBox="0 0 20 21" fill="none" xmlns="http://www.w3.org/2000/svg">
<g clip-path="url(#clip0_449_434)">
<path d="M4.5 2.72222C4.5 1.49492 5.50808 0.5 6.75161 0.5C7.99517 0.5 9.00321 1.49492 9.00321 2.72222C9.00321 3.54476 8.55042 4.26292 7.87741 4.64716V12.7662H9.89429C11.1378 12.7662 12.1459 11.7712 12.1459 10.544V9.14867C11.4601 8.76789 10.9968 8.04263 10.9968 7.21061C10.9968 5.98331 12.0048 4.98839 13.2484 4.98839C14.4918 4.98839 15.5 5.98331 15.5 7.21061C15.5 8.02359 15.0576 8.73456 14.3975 9.122V10.544C14.3975 12.9986 12.3813 14.9884 9.89429 14.9884H7.87741V16.3529C8.55042 16.7371 9.00321 17.4552 9.00321 18.2778C9.00321 19.5051 7.99517 20.5 6.75161 20.5C5.50808 20.5 4.5 19.5051 4.5 18.2778C4.5 17.4552 4.9528 16.7371 5.6258 16.3529V4.64716C4.9528 4.26292 4.5 3.54476 4.5 2.72222Z" fill="black"/>
</g>
<defs>
<clipPath id="clip0_449_434">
<rect width="20" height="20" fill="white" transform="translate(0 0.5)"/>
</clipPath>
</defs>
</svg>
