<svg width="20" height="21" viewBox="0 0 20 21" fill="none" xmlns="http://www.w3.org/2000/svg">
<g clip-path="url(#clip0_449_438)">
<path d="M10 0.5C8.02223 0.5 6.08883 1.08651 4.44434 2.18532C2.79985 3.28414 1.51806 4.84592 0.7612 6.67318C0.00432262 8.50045 -0.193696 10.5111 0.192153 12.4509C0.578015 14.3906 1.53045 16.1726 2.92897 17.5711C4.32749 18.9695 6.10935 19.922 8.04917 20.3078C9.98897 20.6937 11.9996 20.4957 13.8268 19.7388C15.6542 18.982 17.2158 17.7002 18.3148 16.0557C19.4135 14.4112 20 12.4778 20 10.5C20 7.84783 18.9465 5.30431 17.0711 3.42894C15.1957 1.55357 12.6522 0.5 10 0.5ZM10 18.9615C8.32651 18.9615 6.69051 18.4654 5.29901 17.5355C3.90752 16.6058 2.82309 15.2842 2.18266 13.7381C1.54222 12.1919 1.37465 10.4906 1.70114 8.84923C2.02763 7.20786 2.83354 5.70023 4.01691 4.51686C5.20028 3.33349 6.70789 2.52758 8.34928 2.20109C9.99065 1.8746 11.692 2.04218 13.2381 2.68262C14.7843 3.32305 16.1058 4.40749 17.0355 5.79898C17.9654 7.19048 18.4615 8.82646 18.4615 10.5C18.4615 12.7441 17.57 14.8963 15.9832 16.4831C14.3963 18.07 12.2442 18.9615 10 18.9615Z" fill="black"/>
<path d="M10.0007 11.7507C10.6911 11.7507 11.2507 11.1911 11.2507 10.5007C11.2507 9.81039 10.6911 9.25075 10.0007 9.25075C9.31038 9.25075 8.75073 9.81039 8.75073 10.5007C8.75073 11.1911 9.31038 11.7507 10.0007 11.7507Z" fill="black"/>
</g>
<defs>
<clipPath id="clip0_449_438">
<rect width="20" height="20" fill="white" transform="translate(0 0.5)"/>
</clipPath>
</defs>
</svg>
