<svg width="14" height="13" viewBox="0 0 14 13" fill="none" xmlns="http://www.w3.org/2000/svg">
<path fill-rule="evenodd" clip-rule="evenodd" d="M7.00001 0.21875C7.12252 0.218671 7.24261 0.252887 7.34668 0.317526C7.45075 0.382165 7.53465 0.474645 7.58888 0.5845L9.23563 3.92262L12.9194 4.45812C13.0405 4.47572 13.1544 4.52686 13.248 4.60575C13.3416 4.68465 13.4113 4.78816 13.4491 4.90458C13.487 5.021 13.4915 5.1457 13.4623 5.26457C13.433 5.38344 13.371 5.49175 13.2834 5.57725L10.6181 8.176L11.2473 11.844C11.268 11.9647 11.2546 12.0888 11.2085 12.2022C11.1624 12.3157 11.0854 12.414 10.9864 12.486C10.8873 12.558 10.7701 12.6008 10.648 12.6097C10.5258 12.6186 10.4037 12.5931 10.2953 12.5361L7.00001 10.8036L3.70476 12.5361C3.59642 12.593 3.47434 12.6185 3.3523 12.6096C3.23026 12.6008 3.11312 12.558 3.0141 12.4861C2.91509 12.4142 2.83815 12.3161 2.79197 12.2028C2.74579 12.0895 2.73221 11.9655 2.75276 11.8449L3.38276 8.17512L0.715757 5.57725C0.627877 5.49178 0.565693 5.38341 0.536252 5.26441C0.50681 5.14541 0.511288 5.02055 0.549178 4.90396C0.587068 4.78738 0.656855 4.68374 0.75063 4.60478C0.844406 4.52583 0.958422 4.47472 1.07976 4.45725L4.76351 3.92262L6.41113 0.5845C6.46536 0.474645 6.54926 0.382165 6.65334 0.317526C6.75741 0.252887 6.87749 0.218671 7.00001 0.21875ZM7.00001 2.35812L5.78813 4.8125C5.74107 4.90779 5.67157 4.99022 5.58561 5.05271C5.49964 5.1152 5.39979 5.15588 5.29463 5.17125L2.58476 5.565L4.54476 7.476C4.62101 7.55025 4.67807 7.64195 4.71099 7.74316C4.74392 7.84438 4.75173 7.95209 4.73376 8.057L4.27176 10.7555L6.69463 9.4815C6.78881 9.43199 6.89361 9.40612 7.00001 9.40612C7.1064 9.40612 7.21121 9.43199 7.30538 9.4815L9.72913 10.7555L9.26538 8.057C9.24741 7.95209 9.25522 7.84438 9.28814 7.74316C9.32107 7.64195 9.37812 7.55025 9.45438 7.476L11.4144 5.56587L8.70538 5.17212C8.60022 5.15676 8.50037 5.11608 8.41441 5.05359C8.32844 4.9911 8.25894 4.90866 8.21188 4.81337L7.00001 2.35725V2.35812Z" fill="#FF9432"/>
</svg>
