<svg width="20" height="15" viewBox="0 0 20 15" fill="none" xmlns="http://www.w3.org/2000/svg">
<path d="M1.03032 7.79021C0.96814 7.60363 0.96808 7.40164 1.03016 7.21503C2.27991 3.45802 5.8239 0.748779 10.0007 0.748779C14.1755 0.748779 17.7181 3.4555 18.9694 7.20979C19.0316 7.39636 19.0317 7.59836 18.9696 7.78497C17.7199 11.542 14.1759 14.2512 9.9991 14.2512C5.82427 14.2512 2.28163 11.5445 1.03032 7.79021Z" stroke="black" stroke-width="1.5" stroke-linecap="round" stroke-linejoin="round"/>
<path d="M12.7004 7.5C12.7004 8.99143 11.4914 10.2005 9.99994 10.2005C8.50851 10.2005 7.29946 8.99143 7.29946 7.5C7.29946 6.00856 8.50851 4.79951 9.99994 4.79951C11.4914 4.79951 12.7004 6.00856 12.7004 7.5Z" stroke="black" stroke-width="1.5" stroke-linecap="round" stroke-linejoin="round"/>
</svg>
